<svg id="Layer_1" data-name="Layer 1" xmlns="http://www.w3.org/2000/svg" viewBox="0 0 653.6 373.92"><defs><style>.cls-1{fill:#8ec640;}</style></defs><path class="cls-1" d="M697.38,430.12l-78.79,82.81-53.33-53.11L723.7,301.17l16.61,12.31L758.8,245l-68.7,17.43,10.39,15.6L542.84,437.91c-29.2-29.49-59.3-58.58-87.78-89.2-14.47-15.56-25.16-16.73-39.51-.25C395.92,371,374.63,392.08,351.06,417c-17.63-19.31-31.32-34.11-44.78-49.12-8.64-9.64-16.73-9.05-25.6-.17C222.13,426.37,163.3,484.78,105.2,543.92l17.42,17.42c18.28-17.77,35.88-36.27,53.86-54.36Q234.59,448.5,293,390l40.95,39.29c-3.6,4.18-5.91,7.25-8.6,9.94-54.16,54.1-108.49,108-162.33,162.43L180.24,619c16.61-16.43,32.91-33.2,49.26-49.89,40-40.78,79.72-81.78,121.54-124.72,33.28,34.12,63.94,63.92,92.55,95.58,15.3,16.93,25.34,14.46,38.94-1.23,19.27-22.25,40.28-43,63.12-67.11,20.94,21.93,38.7,39.37,55.07,58,13.28,15.16,24,12.68,36.55-.65,25.43-27.09,51.51-53.56,77.73-80.72l20.17,14.79c6.38-23,12.28-44.18,19.19-69L685,412.35ZM462.14,522l-86.62-91.46L436.14,368l87.47,92.4C504.5,479.56,483.73,500.38,462.14,522Z" transform="translate(-105.2 -245.04)"/></svg>