<svg id="Layer_1" data-name="Layer 1" xmlns="http://www.w3.org/2000/svg" viewBox="0 0 673.6 419.16"><defs><style>.cls-1,.cls-3{fill:#231f20;}.cls-2,.cls-4{fill:#8dc63f;}.cls-2,.cls-3{opacity:0.6;}</style></defs><path class="cls-1" d="M54.46,568.78A31.3,31.3,0,0,1,27.4,521.85L232.8,166.07A31.29,31.29,0,0,1,287,197.36L81.58,553.13A31.26,31.26,0,0,1,54.46,568.78Z" transform="translate(-23.2 -150.42)"/><path class="cls-2" d="M665.54,569.58a31.26,31.26,0,0,1-27.12-15.65L433,198.16a31.29,31.29,0,0,1,54.19-31.29L692.6,522.65a31.3,31.3,0,0,1-27.06,46.93Z" transform="translate(-23.2 -150.42)"/><path class="cls-3" d="M297.79,309.7l36.12-62.57-46.8-81.06a31.28,31.28,0,1,0-54.18,31.29Z" transform="translate(-23.2 -150.42)"/><path class="cls-4" d="M475.35,155.42a31.28,31.28,0,0,0-42.73,11.45L227.21,522.65a31.28,31.28,0,1,0,54.19,31.28L486.8,198.16A31.28,31.28,0,0,0,475.35,155.42Z" transform="translate(-23.2 -150.42)"/><path class="cls-2" d="M498.63,521.84,399.28,349.76l-36.13,62.57,81.29,140.8a31.29,31.29,0,0,0,54.19-31.29Z" transform="translate(-23.2 -150.42)"/></svg>